<svg width="20" height="18" viewBox="0 0 20 18" fill="none" xmlns="http://www.w3.org/2000/svg">
    <path d="M7.25065 8.08333C9.27569 8.08333 10.9173 6.44171 10.9173 4.41667C10.9173 2.39162 9.27569 0.75 7.25065 0.75C5.22561 0.75 3.58398 2.39162 3.58398 4.41667C3.58398 6.44171 5.22561 8.08333 7.25065 8.08333Z" fill="#919EAB"/>
    <path d="M14.584 9.91667C16.1028 9.91667 17.334 8.68545 17.334 7.16667C17.334 5.64788 16.1028 4.41667 14.584 4.41667C13.0652 4.41667 11.834 5.64788 11.834 7.16667C11.834 8.68545 13.0652 9.91667 14.584 9.91667Z" fill="#919EAB"/>
    <path d="M18.2507 16.3333C18.7569 16.3333 19.1673 15.9229 19.1673 15.4167C19.1658 13.6689 18.1704 12.0741 16.601 11.3049C15.0315 10.5358 13.1612 10.7262 11.779 11.7958C9.94297 9.96703 7.18713 9.42211 4.79328 10.4145C2.39942 11.407 0.83749 13.7419 0.833984 16.3333C0.833984 16.8396 1.24439 17.25 1.75065 17.25H12.7507C13.2569 17.25 13.6673 16.8396 13.6673 16.3333" fill="#919EAB"/>
</svg>
