<svg width="19" height="18" viewBox="0 0 19 18" fill="none" xmlns="http://www.w3.org/2000/svg">
    <path d="M15.499 11.7505C14.7789 11.7511 14.0877 12.0342 13.574 12.5389L6.33235 9.31221V9.00055V8.69805L13.574 5.46221C14.5092 6.37892 15.9612 6.50895 17.0444 5.77303C18.1276 5.0371 18.5416 3.63939 18.034 2.43222C17.5263 1.22506 16.2378 0.543365 14.9541 0.802841C13.6705 1.06232 12.748 2.19097 12.749 3.50055V3.81221L5.50735 7.03888C4.42846 5.97892 2.69612 5.98913 1.62981 7.06175C0.563501 8.13436 0.563501 9.86673 1.62981 10.9393C2.69612 12.012 4.42846 12.0222 5.50735 10.9622L12.749 14.198V14.5005C12.749 16.0193 13.9802 17.2505 15.499 17.2505C17.0178 17.2505 18.249 16.0193 18.249 14.5005C18.249 12.9818 17.0178 11.7505 15.499 11.7505Z" fill="#919EAB"/>
</svg>
