<svg width="22" height="22" viewBox="0 0 22 22" fill="none" xmlns="http://www.w3.org/2000/svg">
    <path fill-rule="evenodd" clip-rule="evenodd" d="M15.9958 4.27167L19.0575 10.395C19.1852 10.6512 19.2511 10.9337 19.25 11.22V16.5C19.25 18.0188 18.0188 19.25 16.5 19.25H5.50001C3.98123 19.25 2.75001 18.0188 2.75001 16.5V11.22C2.74889 10.9337 2.81482 10.6512 2.94251 10.395L6.00418 4.27167C6.47058 3.33744 7.42584 2.74795 8.47001 2.75001H13.53C14.5742 2.74795 15.5294 3.33744 15.9958 4.27167ZM8.47001 4.58334C8.12154 4.58091 7.80182 4.77629 7.64501 5.08751L5.15168 10.0833H7.33335C7.83961 10.0833 8.25001 10.4937 8.25001 11V12.8333C8.25001 13.3396 8.66042 13.75 9.16668 13.75H12.8333C13.3396 13.75 13.75 13.3396 13.75 12.8333V11C13.75 10.4937 14.1604 10.0833 14.6667 10.0833H16.8483L14.355 5.08751C14.1982 4.77629 13.8785 4.58091 13.53 4.58334H8.47001Z" fill="#919EAB"/>
</svg>
