<svg width="18" height="18" viewBox="0 0 18 18" fill="none" xmlns="http://www.w3.org/2000/svg">
    <path d="M16.3333 8.08333C16.0902 8.08333 15.8571 8.17991 15.6852 8.35182C15.5132 8.52373 15.4167 8.75688 15.4167 9V14.5C15.4167 14.7431 15.3201 14.9763 15.1482 15.1482C14.9763 15.3201 14.7431 15.4167 14.5 15.4167H3.5C3.25688 15.4167 3.02373 15.3201 2.85182 15.1482C2.67991 14.9763 2.58333 14.7431 2.58333 14.5V3.5C2.58333 3.25688 2.67991 3.02373 2.85182 2.85182C3.02373 2.67991 3.25688 2.58333 3.5 2.58333H9C9.24312 2.58333 9.47627 2.48676 9.64818 2.31485C9.82009 2.14294 9.91667 1.90978 9.91667 1.66667C9.91667 1.42355 9.82009 1.19039 9.64818 1.01849C9.47627 0.846577 9.24312 0.75 9 0.75H3.5C2.77065 0.75 2.07118 1.03973 1.55546 1.55546C1.03973 2.07118 0.75 2.77065 0.75 3.5V14.5C0.75 15.2293 1.03973 15.9288 1.55546 16.4445C2.07118 16.9603 2.77065 17.25 3.5 17.25H14.5C15.2293 17.25 15.9288 16.9603 16.4445 16.4445C16.9603 15.9288 17.25 15.2293 17.25 14.5V9C17.25 8.75688 17.1534 8.52373 16.9815 8.35182C16.8096 8.17991 16.5764 8.08333 16.3333 8.08333Z" fill="#919EAB"/>
    <path d="M12.6667 2.58333H14.115L8.34917 8.34C8.26325 8.42522 8.19505 8.5266 8.14852 8.6383C8.10198 8.75001 8.07802 8.86982 8.07802 8.99083C8.07802 9.11184 8.10198 9.23166 8.14852 9.34336C8.19505 9.45507 8.26325 9.55645 8.34917 9.64167C8.43438 9.72758 8.53577 9.79578 8.64747 9.84232C8.75918 9.88885 8.87899 9.91282 9 9.91282C9.12101 9.91282 9.24082 9.88885 9.35253 9.84232C9.46423 9.79578 9.56562 9.72758 9.65083 9.64167L15.4167 3.885V5.33333C15.4167 5.57645 15.5132 5.80961 15.6852 5.98151C15.8571 6.15342 16.0902 6.25 16.3333 6.25C16.5764 6.25 16.8096 6.15342 16.9815 5.98151C17.1534 5.80961 17.25 5.57645 17.25 5.33333V1.66667C17.25 1.42355 17.1534 1.19039 16.9815 1.01849C16.8096 0.846577 16.5764 0.75 16.3333 0.75H12.6667C12.4236 0.75 12.1904 0.846577 12.0185 1.01849C11.8466 1.19039 11.75 1.42355 11.75 1.66667C11.75 1.90978 11.8466 2.14294 12.0185 2.31485C12.1904 2.48676 12.4236 2.58333 12.6667 2.58333Z" fill="#919EAB"/>
</svg>
