<svg width="22" height="22" viewBox="0 0 22 22" fill="none" xmlns="http://www.w3.org/2000/svg">
    <path fill-rule="evenodd" clip-rule="evenodd" d="M6.41602 5.5C8.80852 5.5 10.8435 7.03083 11.5952 9.16667H21.0827V12.8333H19.2494V16.5H15.5827V12.8333H11.5952C10.8435 14.9692 8.80852 16.5 6.41602 16.5C3.38185 16.5 0.916016 14.0342 0.916016 11C0.916016 7.96583 3.38185 5.5 6.41602 5.5ZM4.58268 11C4.58268 12.0083 5.40768 12.8333 6.41602 12.8333C7.42435 12.8333 8.24935 12.0083 8.24935 11C8.24935 9.99167 7.42435 9.16667 6.41602 9.16667C5.40768 9.16667 4.58268 9.99167 4.58268 11Z" fill="#919EAB"/>
</svg>
