<svg width="20" height="17" viewBox="0 0 20 17" fill="none" xmlns="http://www.w3.org/2000/svg">
    <path d="M19.0757 8.00059C19.0757 7.89976 19.0207 7.79893 18.9932 7.69809C18.9507 7.5202 18.8956 7.34559 18.8282 7.17559C18.7823 7.06559 18.7182 6.95559 18.6632 6.83643C18.6082 6.71726 18.5257 6.56143 18.4432 6.43309C18.3607 6.30476 18.2507 6.24059 18.2507 6.16726C18.2507 6.09393 18.0673 5.93809 17.9665 5.82809C17.8657 5.71809 17.774 5.64476 17.6732 5.55309L17.334 5.25059L17.004 5.03059C16.8744 4.95131 16.7397 4.88088 16.6007 4.81976L16.2432 4.65476C16.0934 4.59931 15.9403 4.55338 15.7848 4.51726C15.6616 4.48102 15.536 4.45345 15.409 4.43476L15.1982 4.33393C14.8241 3.25322 14.1225 2.31599 13.191 1.65264C12.2594 0.98929 11.1443 0.632812 10.0007 0.632812C8.85705 0.632813 7.74189 0.98929 6.81034 1.65264C5.87879 2.31599 5.17719 3.25322 4.80315 4.33393L4.63815 4.37976C4.5111 4.39845 4.38552 4.42602 4.26232 4.46226C4.10679 4.49838 3.95371 4.54431 3.80398 4.59976L3.44648 4.76476C3.30745 4.82588 3.1727 4.89631 3.04315 4.97559L2.71315 5.25059L2.37398 5.53476C2.27315 5.62643 2.17232 5.70893 2.08065 5.80976C1.98898 5.91059 1.88815 6.03893 1.79648 6.14893C1.70482 6.25892 1.63148 6.35976 1.55815 6.47893C1.48482 6.59809 1.41148 6.74476 1.33815 6.88226C1.26482 7.01976 1.21898 7.11143 1.17315 7.22143C1.10572 7.39142 1.05058 7.56604 1.00815 7.74393C1.00815 7.84476 0.943984 7.94559 0.925651 8.04643C0.868595 8.3333 0.837911 8.62479 0.833984 8.91726C0.838282 9.19712 0.865877 9.47614 0.916484 9.75143C0.916484 9.84309 0.962318 9.92559 0.980651 10.0173C1.02596 10.1973 1.08104 10.3748 1.14565 10.5489L1.25565 10.8148C1.33634 10.9915 1.4282 11.163 1.53065 11.3281L1.65898 11.5298C1.67217 11.5554 1.6875 11.58 1.70482 11.6031L1.75065 11.6673C2.17758 12.2365 2.73117 12.6985 3.36759 13.0167C4.00401 13.3349 4.70578 13.5006 5.41732 13.5006H8.16732V12.2448C7.8888 12.4063 7.57264 12.4917 7.25065 12.4923C6.75405 12.4876 6.27948 12.2866 5.93065 11.9331C5.76317 11.7598 5.63149 11.5553 5.54314 11.3311C5.45478 11.1069 5.4115 10.8674 5.41576 10.6265C5.42001 10.3856 5.47173 10.1478 5.56794 9.9269C5.66416 9.70596 5.80299 9.50616 5.97648 9.33893L8.72648 6.68059C9.06863 6.35082 9.52545 6.16677 10.0007 6.16726C10.4861 6.16931 10.9509 6.3638 11.2932 6.70809L14.0432 9.45809C14.3846 9.80159 14.5763 10.2663 14.5763 10.7506C14.5763 11.2349 14.3846 11.6996 14.0432 12.0431C13.7009 12.3874 13.2361 12.5819 12.7507 12.5839C12.4282 12.587 12.1111 12.5013 11.834 12.3364V13.5006H14.584C15.2955 13.5006 15.9973 13.3349 16.6337 13.0167C17.2701 12.6985 17.8237 12.2365 18.2507 11.6673L18.2965 11.6214C18.3138 11.5983 18.3291 11.5738 18.3423 11.5481L18.4707 11.3464C18.5731 11.1813 18.665 11.0099 18.7457 10.8331L18.8557 10.5673C18.9203 10.3932 18.9753 10.2157 19.0207 10.0356C19.0207 9.94392 19.0665 9.86143 19.0848 9.76976C19.1364 9.48845 19.164 9.20325 19.1673 8.91726C19.1663 8.60947 19.1356 8.3025 19.0757 8.00059Z" fill="#919EAB"/>
    <path d="M10.6515 7.34976C10.4801 7.1818 10.2498 7.08772 10.0098 7.08772C9.76988 7.08772 9.5395 7.1818 9.36815 7.34976L6.61815 10.0081C6.52088 10.0884 6.44122 10.1878 6.38415 10.3003C6.32708 10.4127 6.29382 10.5357 6.28646 10.6616C6.27911 10.7875 6.2978 10.9136 6.34138 11.0319C6.38496 11.1503 6.45249 11.2583 6.53975 11.3494C6.627 11.4404 6.7321 11.5125 6.84848 11.5611C6.96485 11.6096 7.09 11.6337 7.21609 11.6317C7.34218 11.6297 7.4665 11.6017 7.58128 11.5495C7.69606 11.4972 7.79882 11.4219 7.88315 11.3281L9.08398 10.1639V15.3339C9.08398 15.577 9.18056 15.8102 9.35247 15.9821C9.52438 16.154 9.75753 16.2506 10.0007 16.2506C10.2438 16.2506 10.4769 16.154 10.6488 15.9821C10.8207 15.8102 10.9173 15.577 10.9173 15.3339V10.2098L12.0998 11.4014C12.185 11.4873 12.2864 11.5555 12.3981 11.6021C12.5098 11.6486 12.6296 11.6726 12.7507 11.6726C12.8717 11.6726 12.9915 11.6486 13.1032 11.6021C13.2149 11.5555 13.3163 11.4873 13.4015 11.4014C13.4874 11.3162 13.5556 11.2148 13.6021 11.1031C13.6487 10.9914 13.6726 10.8716 13.6726 10.7506C13.6726 10.6296 13.6487 10.5098 13.6021 10.3981C13.5556 10.2864 13.4874 10.185 13.4015 10.0998L10.6515 7.34976Z" fill="#919EAB"/>
</svg>
