<svg width="16" height="16" viewBox="0 0 16 16" fill="none" xmlns="http://www.w3.org/2000/svg">
    <path d="M14.7846 3.72861L12.2729 1.21694C11.9535 0.893346 11.5212 0.705931 11.0667 0.693969C10.6121 0.682007 10.1706 0.846428 9.83458 1.15278L8.00125 2.98611L6.81875 1.84944C6.73328 1.76398 6.63181 1.69618 6.52014 1.64992C6.40847 1.60367 6.28879 1.57986 6.16792 1.57986C5.92381 1.57986 5.68969 1.67683 5.51708 1.84944C5.43161 1.93491 5.36382 2.03638 5.31756 2.14805C5.27131 2.25972 5.2475 2.37941 5.2475 2.50028C5.2475 2.74439 5.34447 2.9785 5.51708 3.15111L6.65375 4.33361L1.58458 9.40278C1.28828 9.70158 1.10379 10.0932 1.06208 10.5119L0.667915 14.3344C0.655567 14.4687 0.672988 14.604 0.718938 14.7308C0.764888 14.8576 0.838234 14.9726 0.933749 15.0678C1.0194 15.1527 1.12098 15.22 1.23267 15.2656C1.34435 15.3112 1.46394 15.3343 1.58458 15.3336H1.66708L5.48958 14.9853C5.90831 14.9436 6.29995 14.7591 6.59875 14.4628L11.7137 9.34778L12.8504 10.4844C12.9356 10.5704 13.037 10.6386 13.1487 10.6851C13.2604 10.7316 13.3802 10.7556 13.5012 10.7556C13.6223 10.7556 13.7421 10.7316 13.8538 10.6851C13.9655 10.6386 14.0669 10.5704 14.1521 10.4844C14.238 10.3992 14.3062 10.2978 14.3527 10.1861C14.3993 10.0744 14.4232 9.95462 14.4232 9.83361C14.4232 9.7126 14.3993 9.59279 14.3527 9.48108C14.3062 9.36938 14.238 9.26799 14.1521 9.18278L13.0154 8.04611L14.8487 6.21278C15.169 5.8745 15.342 5.42308 15.33 4.95744C15.318 4.49179 15.1218 4.04991 14.7846 3.72861ZM2.86792 10.6953L8.00125 5.58028L10.4671 8.05528L7.90958 10.6128" fill="#919EAB"/>
</svg>
