<?xml version="1.0" encoding="UTF-8"?>
<svg width="218px" height="36px" viewBox="0 0 218 36" version="1.1" xmlns="http://www.w3.org/2000/svg" xmlns:xlink="http://www.w3.org/1999/xlink">
    <!-- Generator: Sketch 46.2 (44496) - http://www.bohemiancoding.com/sketch -->
    <title>Artboard</title>
    <desc>Created with Sketch.</desc>
    <defs>
        <polygon id="path-1" points="47.9995 35.97 0.03 35.97 0.03 0 24.01475 0 47.9995 0"></polygon>
    </defs>
    <g id="Resources" stroke="none" stroke-width="1" fill="none" fill-rule="evenodd">
        <g id="Artboard">
            <g id="CRA_logo_blue_RGB">
                <g id="Group-3">
                    <mask id="mask-2" fill="white">
                        <use xlink:href="#path-1"></use>
                    </mask>
                    <g id="Clip-2"></g>
                    <polyline id="Fill-1" fill="#55D4F5" mask="url(#mask-2)" points="35.999 12 35.999 0 23.9995 0 23.9995 12 0 12 0 23.999 11.9995 23.999 11.9995 36 23.9995 36 23.9995 23.999 47.9995 23.999 47.9995 12 35.999 12"></polyline>
                </g>
                <path d="M79.823,22.126 C79.4055,23.198 78.9285,24.122 78.6905,24.42 C77.9755,25.4325 76.575,26.952 74.758,26.952 L70.8565,26.952 C70.1405,26.952 69.3955,26.6835 68.8895,26.3855 C68.2635,25.998 67.132,24.8065 66.715,24.241 C66.3565,23.675 66.209,22.989 66.209,22.3945 L66.209,13.3675 C66.209,12.714 66.327,12.088 66.715,11.5215 C67.073,11.045 68.2335,9.794 68.919,9.377 C69.3955,9.1075 70.1405,8.8105 70.8565,8.8105 L74.758,8.8105 C76.575,8.8105 77.9465,10.3595 78.661,11.3135 C78.8995,11.6115 79.5555,12.8625 79.823,13.607 L76.3065,14.5895 C76.1875,14.2915 76.157,14.232 76.13,14.1725 C75.7705,13.428 75.4725,12.8625 74.6385,12.296 L71.005,12.296 C70.707,12.505 70.1105,13.07 69.843,13.488 L69.843,22.365 C69.843,22.3945 70.29,23.049 71.005,23.467 L74.6385,23.467 C74.967,23.258 75.5635,22.6015 75.831,22.155 C75.831,22.155 76.039,21.7985 76.3065,21.2035 L79.823,22.126" id="Fill-4" fill="#000000"></path>
                <path d="M98.147,13.1305 C97.9985,12.8905 97.641,12.534 97.3735,12.416 L92.309,12.416 L92.309,16.4955 L97.3735,16.4955 C97.4925,16.4955 97.969,16.0785 98.147,15.7805 L98.147,13.1305 Z M98.923,26.8025 L94.483,19.982 L92.309,19.982 L92.309,26.8025 L88.6745,26.8025 L88.6745,8.9305 L97.3735,8.9305 C98.147,8.9305 99.041,9.168 99.6365,9.614 C100.0245,9.883 100.919,10.836 101.217,11.254 C101.573,11.8195 101.7815,12.5635 101.7815,13.22 L101.7815,15.7515 C101.7815,16.4665 101.6035,17.1205 101.217,17.688 C100.9765,18.105 100.084,19.028 99.6365,19.2965 C99.0705,19.6245 98.8025,19.7145 98.624,19.802 C98.594,19.8315 98.565,19.802 98.5355,19.8315 C99.994,22.0075 101.6935,24.5985 103.1525,26.8025 L98.923,26.8025 L98.923,26.8025 Z" id="Fill-5" fill="#000000"></path>
                <path d="M117.933,14.142 C117.2765,16.0485 116.592,17.986 115.9375,19.892 L119.9575,19.892 L117.933,14.142 Z M122.2515,26.8025 L121.061,23.378 L114.835,23.378 C114.4475,24.4795 114,25.701 113.6135,26.8025 L109.74,26.8025 L115.9375,8.9305 L119.9575,8.9305 L126.1245,26.8025 L122.2515,26.8025 L122.2515,26.8025 Z" id="Fill-6" fill="#000000"></path>
                <polyline id="Fill-7" fill="#000000" points="140.7245 12.416 140.7245 26.8025 137.0605 26.8025 137.0605 12.416 132.235 12.416 132.235 8.9305 145.5205 8.9305 145.5205 12.416 140.7245 12.416"></polyline>
                <polyline id="Fill-8" fill="#000000" points="154.194 26.8025 154.194 8.9305 165.931 8.9305 165.931 12.416 157.8275 12.416 157.8275 16.0785 165.6625 16.0785 165.6625 19.564 157.8275 19.564 157.8275 23.3175 165.931 23.3175 165.931 26.8025 154.194 26.8025"></polyline>
                <polygon id="Fill-9" fill="#000000" points="175.885 26.8025 180.086 26.8025 180.086 22.572 175.885 22.572"></polygon>
                <polygon id="Fill-10" fill="#000000" points="189.83 26.8025 193.4935 26.8025 193.4935 8.9305 189.83 8.9305"></polygon>
                <path d="M213.4835,13.398 C213.2755,13.0405 212.71,12.4755 212.412,12.296 L207.884,12.296 C207.6455,12.4755 207.1395,12.922 206.7815,13.428 L206.7815,22.365 C207.1105,22.8105 207.616,23.3175 207.8545,23.467 L212.382,23.467 C212.621,23.287 213.157,22.7815 213.4835,22.365 L213.4835,13.398 Z M216.6125,24.211 C216.2245,24.717 215.093,25.998 214.4385,26.3855 C213.9305,26.6835 213.1865,26.952 212.4715,26.952 L207.794,26.952 C207.05,26.952 206.3355,26.6835 205.8295,26.3855 C205.1735,25.998 204.011,24.717 203.654,24.211 C203.267,23.6455 203.148,22.989 203.148,22.365 L203.148,13.398 C203.148,12.743 203.267,12.088 203.654,11.5215 C204.011,11.045 205.1735,9.7645 205.8295,9.377 C206.3355,9.078 207.05,8.8105 207.794,8.8105 L212.4715,8.8105 C213.1865,8.8105 213.9305,9.078 214.4385,9.377 C215.093,9.7645 216.2245,11.045 216.6125,11.5215 C216.999,12.088 217.119,12.743 217.119,13.398 L217.119,22.365 C217.119,22.989 216.999,23.6455 216.6125,24.211 L216.6125,24.211 Z" id="Fill-11" fill="#000000"></path>
            </g>
        </g>
    </g>
</svg>